<svg width="163" height="64" viewBox="0 0 163 64" fill="none" xmlns="http://www.w3.org/2000/svg">
<mask id="path-1-inside-1_95_41" fill="white">
<path d="M26.7068 0.349413C30.1335 -1.06997 33.2517 2.05446 33.2518 5.76348V12.8279C34.3587 11.6805 35.6224 10.6908 37.0086 9.89043C38.9535 8.76752 41.1003 8.03808 43.327 7.74492C45.5536 7.45178 47.8168 7.60017 49.9861 8.18144C52.1553 8.76273 54.1889 9.76551 55.9705 11.1326C58.3736 12.9766 58.0485 16.1568 56.0994 18.2713C57.5075 19.0466 58.8021 20.0179 59.9432 21.159C61.5312 22.747 62.7917 24.632 63.6512 26.7068C65.0705 30.1335 61.946 33.2516 58.2371 33.2518H51.1727C52.3201 34.3587 53.3098 35.6224 54.1102 37.0086C55.2331 38.9535 55.9625 41.1004 56.2557 43.327C56.5488 45.5536 56.4004 47.8168 55.8191 49.9861C55.2379 52.1553 54.235 54.1889 52.868 55.9705C51.0236 58.3742 47.8418 58.0488 45.7273 56.0984C44.952 57.5065 43.9826 58.8021 42.8416 59.9432C41.2535 61.5312 39.3677 62.7917 37.2928 63.6512C33.8663 65.07 30.749 61.9459 30.7488 58.2371V51.1717C29.6418 52.3194 28.3784 53.3097 26.992 54.1102C25.0471 55.233 22.9001 55.9625 20.6736 56.2557C18.447 56.5488 16.1838 56.4004 14.0145 55.8191C11.8453 55.2379 9.81175 54.235 8.03008 52.868C5.62678 51.0239 5.95157 47.8428 7.90117 45.7283C6.49311 44.953 5.19752 43.9827 4.05645 42.8416C2.46854 41.2536 1.20883 39.3685 0.349414 37.2938C-1.06997 33.867 2.05445 30.7489 5.76348 30.7488H12.8279C11.6804 29.6419 10.6898 28.3783 9.88945 26.992C8.76665 25.0472 8.03809 22.9001 7.74492 20.6736C7.45178 18.447 7.60017 16.1838 8.18145 14.0145C8.76271 11.8452 9.76552 9.81175 11.1326 8.03008C12.9765 5.62713 16.1568 5.95134 18.2713 7.90019C19.0466 6.4923 20.018 5.1974 21.159 4.05644C22.747 2.46855 24.6321 1.20882 26.7068 0.349413ZM31.8367 30.5711C31.5013 30.9756 31.1162 31.3221 30.6932 31.5975C30.6619 31.7895 30.6217 31.9783 30.5711 32.1629C30.9757 32.4984 31.323 32.8833 31.5984 33.3064C31.7901 33.3377 31.9787 33.378 32.1629 33.4285C32.4985 33.0238 32.8831 32.6756 33.3064 32.4002C33.3377 32.2089 33.378 32.0206 33.4285 31.8367C33.024 31.5012 32.6765 31.1164 32.4012 30.6932C32.2095 30.6619 32.021 30.6217 31.8367 30.5711Z"/>
</mask>
<path d="M26.7068 0.349413C30.1335 -1.06997 33.2517 2.05446 33.2518 5.76348V12.8279C34.3587 11.6805 35.6224 10.6908 37.0086 9.89043C38.9535 8.76752 41.1003 8.03808 43.327 7.74492C45.5536 7.45178 47.8168 7.60017 49.9861 8.18144C52.1553 8.76273 54.1889 9.76551 55.9705 11.1326C58.3736 12.9766 58.0485 16.1568 56.0994 18.2713C57.5075 19.0466 58.8021 20.0179 59.9432 21.159C61.5312 22.747 62.7917 24.632 63.6512 26.7068C65.0705 30.1335 61.946 33.2516 58.2371 33.2518H51.1727C52.3201 34.3587 53.3098 35.6224 54.1102 37.0086C55.2331 38.9535 55.9625 41.1004 56.2557 43.327C56.5488 45.5536 56.4004 47.8168 55.8191 49.9861C55.2379 52.1553 54.235 54.1889 52.868 55.9705C51.0236 58.3742 47.8418 58.0488 45.7273 56.0984C44.952 57.5065 43.9826 58.8021 42.8416 59.9432C41.2535 61.5312 39.3677 62.7917 37.2928 63.6512C33.8663 65.07 30.749 61.9459 30.7488 58.2371V51.1717C29.6418 52.3194 28.3784 53.3097 26.992 54.1102C25.0471 55.233 22.9001 55.9625 20.6736 56.2557C18.447 56.5488 16.1838 56.4004 14.0145 55.8191C11.8453 55.2379 9.81175 54.235 8.03008 52.868C5.62678 51.0239 5.95157 47.8428 7.90117 45.7283C6.49311 44.953 5.19752 43.9827 4.05645 42.8416C2.46854 41.2536 1.20883 39.3685 0.349414 37.2938C-1.06997 33.867 2.05445 30.7489 5.76348 30.7488H12.8279C11.6804 29.6419 10.6898 28.3783 9.88945 26.992C8.76665 25.0472 8.03809 22.9001 7.74492 20.6736C7.45178 18.447 7.60017 16.1838 8.18145 14.0145C8.76271 11.8452 9.76552 9.81175 11.1326 8.03008C12.9765 5.62713 16.1568 5.95134 18.2713 7.90019C19.0466 6.4923 20.018 5.1974 21.159 4.05644C22.747 2.46855 24.6321 1.20882 26.7068 0.349413ZM31.8367 30.5711C31.5013 30.9756 31.1162 31.3221 30.6932 31.5975C30.6619 31.7895 30.6217 31.9783 30.5711 32.1629C30.9757 32.4984 31.323 32.8833 31.5984 33.3064C31.7901 33.3377 31.9787 33.378 32.1629 33.4285C32.4985 33.0238 32.8831 32.6756 33.3064 32.4002C33.3377 32.2089 33.378 32.0206 33.4285 31.8367C33.024 31.5012 32.6765 31.1164 32.4012 30.6932C32.2095 30.6619 32.021 30.6217 31.8367 30.5711Z" fill="#FF8888"/>
<path d="M26.7068 0.349413L26.3242 -0.574466L26.3241 -0.574463L26.7068 0.349413ZM33.2518 5.76348H34.2518V5.76345L33.2518 5.76348ZM33.2518 12.8279H32.2518V15.3049L33.9715 13.5222L33.2518 12.8279ZM37.0086 9.89043L36.5086 9.0244L36.5086 9.0244L37.0086 9.89043ZM43.327 7.74492L43.1964 6.75348L43.1964 6.75348L43.327 7.74492ZM49.9861 8.18144L50.245 7.21552L50.245 7.21552L49.9861 8.18144ZM55.9705 11.1326L56.5793 10.3393V10.3393L55.9705 11.1326ZM56.0994 18.2713L55.3641 17.5935L54.4993 18.5318L55.6171 19.1473L56.0994 18.2713ZM59.9432 21.159L60.6503 20.4519L60.6503 20.4519L59.9432 21.159ZM63.6512 26.7068L64.5751 26.3242V26.3241L63.6512 26.7068ZM58.2371 33.2518V34.2518H58.2372L58.2371 33.2518ZM51.1727 33.2518V32.2518H48.6957L50.4784 33.9715L51.1727 33.2518ZM54.1102 37.0086L54.9762 36.5086L54.1102 37.0086ZM56.2557 43.327L57.2471 43.1964V43.1964L56.2557 43.327ZM55.8191 49.9861L56.7851 50.245L56.7851 50.2449L55.8191 49.9861ZM52.868 55.9705L53.6613 56.5793L53.6613 56.5793L52.868 55.9705ZM45.7273 56.0984L46.4054 55.3634L45.4671 54.4979L44.8514 55.6161L45.7273 56.0984ZM42.8416 59.9432L43.5487 60.6503L43.5487 60.6503L42.8416 59.9432ZM37.2928 63.6512L37.6754 64.5751L37.6755 64.5751L37.2928 63.6512ZM30.7488 58.2371H29.7488V58.2372L30.7488 58.2371ZM30.7488 51.1717H31.7488V48.6946L30.0291 50.4774L30.7488 51.1717ZM26.992 54.1102L27.492 54.9762L27.492 54.9762L26.992 54.1102ZM20.6736 56.2557L20.8042 57.2471L20.8042 57.2471L20.6736 56.2557ZM14.0145 55.8191L13.7556 56.7851H13.7556L14.0145 55.8191ZM8.03008 52.868L7.42132 53.6613L7.42133 53.6613L8.03008 52.868ZM7.90117 45.7283L8.63636 46.4062L9.50146 45.4679L8.38353 44.8523L7.90117 45.7283ZM4.05645 42.8416L3.34933 43.5487L3.34934 43.5487L4.05645 42.8416ZM0.349414 37.2938L-0.574465 37.6764L-0.574458 37.6764L0.349414 37.2938ZM5.76348 30.7488V29.7488H5.76345L5.76348 30.7488ZM12.8279 30.7488V31.7488H15.3049L13.5222 30.0291L12.8279 30.7488ZM9.88945 26.992L9.02342 27.492L9.02343 27.492L9.88945 26.992ZM7.74492 20.6736L6.75348 20.8042L6.75348 20.8042L7.74492 20.6736ZM8.18145 14.0145L7.21552 13.7556L7.21552 13.7556L8.18145 14.0145ZM11.1326 8.03008L10.3393 7.42132L10.3393 7.42133L11.1326 8.03008ZM18.2713 7.90019L17.5936 8.63551L18.5318 9.50023L19.1472 8.38258L18.2713 7.90019ZM21.159 4.05644L20.4519 3.34932L20.4519 3.34934L21.159 4.05644ZM31.8367 30.5711L32.1015 29.6068L31.479 29.4359L31.0669 29.9328L31.8367 30.5711ZM30.6932 31.5975L30.1476 30.7594L29.7772 31.0005L29.7062 31.4368L30.6932 31.5975ZM30.5711 32.1629L29.6067 31.8983L29.4359 32.5207L29.9328 32.9327L30.5711 32.1629ZM31.5984 33.3064L30.7604 33.852L31.0014 34.2223L31.4376 34.2934L31.5984 33.3064ZM32.1629 33.4285L31.8983 34.3929L32.5207 34.5636L32.9326 34.0669L32.1629 33.4285ZM33.3064 32.4002L33.8518 33.2384L34.2222 32.9974L34.2934 32.5614L33.3064 32.4002ZM33.4285 31.8367L34.3928 32.1015L34.5637 31.4791L34.0669 31.067L33.4285 31.8367ZM32.4012 30.6932L33.2394 30.1478L32.9984 29.7774L32.5622 29.7062L32.4012 30.6932ZM26.7068 0.349413L27.0895 1.27329C28.4109 0.725976 29.6475 1.03916 30.6021 1.88266C31.5823 2.74873 32.2517 4.17793 32.2518 5.7635L33.2518 5.76348L34.2518 5.76345C34.2517 3.64001 33.3621 1.65248 31.9264 0.383929C30.4653 -0.907192 28.4295 -1.44654 26.3242 -0.574466L26.7068 0.349413ZM33.2518 5.76348H32.2518V12.8279H33.2518H34.2518V5.76348H33.2518ZM33.2518 12.8279L33.9715 13.5222C35.0138 12.4417 36.2036 11.5099 37.5086 10.7565L37.0086 9.89043L36.5086 9.0244C35.0411 9.87167 33.7035 10.9193 32.5321 12.1336L33.2518 12.8279ZM37.0086 9.89043L37.5086 10.7565C39.34 9.6991 41.3613 9.01235 43.4575 8.73636L43.327 7.74492L43.1964 6.75348C40.8394 7.0638 38.5671 7.83593 36.5086 9.0244L37.0086 9.89043ZM43.327 7.74492L43.4575 8.73637C45.5539 8.46036 47.6848 8.60008 49.7273 9.14737L49.9861 8.18144L50.245 7.21552C47.9488 6.60026 45.5533 6.44319 43.1964 6.75348L43.327 7.74492ZM49.9861 8.18144L49.7273 9.14736C51.7696 9.69467 53.6843 10.6388 55.3617 11.926L55.9705 11.1326L56.5793 10.3393C54.6934 8.89221 52.541 7.83079 50.245 7.21552L49.9861 8.18144ZM55.9705 11.1326L55.3617 11.926C56.2996 12.6456 56.686 13.5941 56.6672 14.5815C56.6479 15.596 56.1951 16.6921 55.3641 17.5935L56.0994 18.2713L56.8347 18.9491C57.9529 17.7361 58.6371 16.1848 58.6669 14.6195C58.6971 13.0272 58.0445 11.4636 56.5793 10.3393L55.9705 11.1326ZM56.0994 18.2713L55.6171 19.1473C56.9429 19.8773 58.1618 20.7918 59.2361 21.8661L59.9432 21.159L60.6503 20.4519C59.4424 19.244 58.0721 18.2159 56.5818 17.3953L56.0994 18.2713ZM59.9432 21.159L59.2361 21.8661C60.7314 23.3615 61.9182 25.1362 62.7273 27.0895L63.6512 26.7068L64.5751 26.3241C63.6652 24.1277 62.331 22.1326 60.6503 20.4519L59.9432 21.159ZM63.6512 26.7068L62.7273 27.0895C63.2746 28.4108 62.9614 29.6474 62.1179 30.602C61.2518 31.5822 59.8226 32.2517 58.2371 32.2518L58.2371 33.2518L58.2372 34.2518C60.3606 34.2516 62.3481 33.362 63.6166 31.9264C64.9077 30.4652 65.4471 28.4295 64.5751 26.3242L63.6512 26.7068ZM58.2371 33.2518V32.2518H51.1727V33.2518V34.2518H58.2371V33.2518ZM51.1727 33.2518L50.4784 33.9715C51.5589 35.0138 52.4907 36.2037 53.2441 37.5086L54.1102 37.0086L54.9762 36.5086C54.1289 35.0411 53.0813 33.7035 51.8669 32.5321L51.1727 33.2518ZM54.1102 37.0086L53.2441 37.5086C54.3015 39.34 54.9882 41.3613 55.2642 43.4575L56.2557 43.327L57.2471 43.1964C56.9368 40.8394 56.1646 38.5671 54.9762 36.5086L54.1102 37.0086ZM56.2557 43.327L55.2642 43.4575C55.5402 45.5539 55.4005 47.6848 54.8532 49.7273L55.8191 49.9861L56.7851 50.2449C57.4003 47.9488 57.5574 45.5533 57.2471 43.1964L56.2557 43.327ZM55.8191 49.9861L54.8532 49.7273C54.306 51.7696 53.3617 53.6843 52.0746 55.3618L52.868 55.9705L53.6613 56.5793C55.1083 54.6934 56.1698 52.541 56.7851 50.245L55.8191 49.9861ZM52.868 55.9705L52.0746 55.3617C51.3548 56.2998 50.406 56.6863 49.4181 56.6674C48.4032 56.648 47.3067 56.1948 46.4054 55.3634L45.7273 56.0984L45.0493 56.8335C46.2624 57.9524 47.8141 58.6371 49.3798 58.667C50.9725 58.6975 52.5367 58.0449 53.6613 56.5793L52.868 55.9705ZM45.7273 56.0984L44.8514 55.6161C44.1209 56.9427 43.2081 58.1624 42.1345 59.2361L42.8416 59.9432L43.5487 60.6503C44.7572 59.4418 45.7831 58.0703 46.6033 56.5808L45.7273 56.0984ZM42.8416 59.9432L42.1345 59.2361C40.6392 60.7313 38.8636 61.9181 36.9101 62.7273L37.2928 63.6512L37.6755 64.5751C39.8718 63.6653 41.8679 62.3311 43.5487 60.6503L42.8416 59.9432ZM37.2928 63.6512L36.9102 62.7272C35.589 63.2744 34.3525 62.9611 33.3982 62.1177C32.4182 61.2517 31.7489 59.8226 31.7488 58.2371L30.7488 58.2371L29.7488 58.2372C29.7489 60.3604 30.6383 62.3478 32.0737 63.6163C33.5347 64.9074 35.5701 65.4468 37.6754 64.5751L37.2928 63.6512ZM30.7488 58.2371H31.7488V51.1717H30.7488H29.7488V58.2371H30.7488ZM30.7488 51.1717L30.0291 50.4774C28.9864 51.5584 27.7969 52.4907 26.492 53.2441L26.992 54.1102L27.492 54.9762C28.9599 54.1287 30.2972 53.0803 31.4686 51.8659L30.7488 51.1717ZM26.992 54.1102L26.492 53.2441C24.6607 54.3014 22.6392 54.9882 20.5431 55.2642L20.6736 56.2557L20.8042 57.2471C23.1611 56.9368 25.4336 56.1646 27.492 54.9762L26.992 54.1102ZM20.6736 56.2557L20.5431 55.2642C18.4467 55.5402 16.3158 55.4005 14.2733 54.8532L14.0145 55.8191L13.7556 56.7851C16.0518 57.4003 18.4473 57.5574 20.8042 57.2471L20.6736 56.2557ZM14.0145 55.8191L14.2733 54.8532C12.2309 54.306 10.3163 53.3617 8.63882 52.0746L8.03008 52.868L7.42133 53.6613C9.30717 55.1083 11.4596 56.1698 13.7556 56.7851L14.0145 55.8191ZM8.03008 52.868L8.63884 52.0746C7.7009 51.3549 7.31436 50.4062 7.33311 49.4185C7.35237 48.4038 7.80526 47.3076 8.63636 46.4062L7.90117 45.7283L7.16599 45.0505C6.04749 46.2635 5.36318 47.815 5.33347 49.3805C5.30325 50.973 5.95596 52.5369 7.42132 53.6613L8.03008 52.868ZM7.90117 45.7283L8.38353 44.8523C7.05719 44.122 5.83742 43.2084 4.76355 42.1345L4.05645 42.8416L3.34934 43.5487C4.55762 44.757 5.92902 45.7839 7.41881 46.6043L7.90117 45.7283ZM4.05645 42.8416L4.76356 42.1345C3.2685 40.6394 2.08245 38.8644 1.27329 36.911L0.349414 37.2938L-0.574458 37.6764C0.33522 39.8725 1.66859 41.8679 3.34933 43.5487L4.05645 42.8416ZM0.349414 37.2938L1.27329 36.9111C0.725976 35.5897 1.03916 34.3531 1.88266 33.3985C2.74873 32.4183 4.17792 31.7489 5.7635 31.7488L5.76348 30.7488L5.76345 29.7488C3.64001 29.7489 1.65248 30.6385 0.383925 32.0742C-0.907196 33.5353 -1.44653 35.5711 -0.574465 37.6764L0.349414 37.2938ZM5.76348 30.7488V31.7488H12.8279V30.7488V29.7488H5.76348V30.7488ZM12.8279 30.7488L13.5222 30.0291C12.4414 28.9865 11.5088 27.7967 10.7555 26.492L9.88945 26.992L9.02343 27.492C9.87089 28.9598 10.9194 30.2972 12.1337 31.4685L12.8279 30.7488ZM9.88945 26.992L10.7555 26.492C9.69838 24.661 9.0124 22.6394 8.73636 20.5431L7.74492 20.6736L6.75348 20.8042C7.06378 23.1607 7.83493 25.4334 9.02342 27.492L9.88945 26.992ZM7.74492 20.6736L8.73637 20.5431C8.46037 18.4467 8.60008 16.3158 9.14737 14.2733L8.18145 14.0145L7.21552 13.7556C6.60026 16.0518 6.44319 18.4473 6.75348 20.8042L7.74492 20.6736ZM8.18145 14.0145L9.14737 14.2733C9.69464 12.2309 10.6388 10.3163 11.926 8.63883L11.1326 8.03008L10.3393 7.42133C8.89223 9.30718 7.83078 11.4596 7.21552 13.7556L8.18145 14.0145ZM11.1326 8.03008L11.926 8.63884C12.6456 7.70101 13.5941 7.31444 14.5816 7.33303C15.5961 7.35214 16.6922 7.80474 17.5936 8.63551L18.2713 7.90019L18.949 7.16488C17.7359 6.0468 16.1846 5.36287 14.6193 5.33339C13.0271 5.3034 11.4635 5.95619 10.3393 7.42132L11.1326 8.03008ZM18.2713 7.90019L19.1472 8.38258C19.8773 7.05688 20.792 5.83769 21.8661 4.76355L21.159 4.05644L20.4519 3.34934C19.2441 4.55711 18.2159 5.92772 17.3953 7.41781L18.2713 7.90019ZM21.159 4.05644L21.8661 4.76357C23.3612 3.2685 25.1361 2.08243 27.0895 1.27329L26.7068 0.349413L26.3241 -0.574463C24.1281 0.335204 22.1327 1.6686 20.4519 3.34932L21.159 4.05644ZM31.8367 30.5711L31.0669 29.9328C30.7923 30.264 30.4818 30.5418 30.1476 30.7594L30.6932 31.5975L31.2387 32.4355C31.7506 32.1023 32.2103 31.6872 32.6065 31.2094L31.8367 30.5711ZM30.6932 31.5975L29.7062 31.4368C29.68 31.5975 29.6471 31.7514 29.6067 31.8983L30.5711 32.1629L31.5354 32.4275C31.5964 32.2053 31.6438 31.9815 31.6802 31.7582L30.6932 31.5975ZM30.5711 32.1629L29.9328 32.9327C30.2648 33.208 30.5432 33.5184 30.7604 33.852L31.5984 33.3064L32.4365 32.7609C32.1028 32.2482 31.6866 31.7888 31.2094 31.3931L30.5711 32.1629ZM31.5984 33.3064L31.4376 34.2934C31.5974 34.3195 31.7511 34.3525 31.8983 34.3929L32.1629 33.4285L32.4275 32.4642C32.2062 32.4034 31.9828 32.3559 31.7593 32.3195L31.5984 33.3064ZM32.1629 33.4285L32.9326 34.0669C33.2088 33.7338 33.5192 33.4548 33.8518 33.2384L33.3064 32.4002L32.7611 31.562C32.2471 31.8964 31.7881 32.3139 31.3931 32.7902L32.1629 33.4285ZM33.3064 32.4002L34.2934 32.5614C34.3194 32.402 34.3524 32.2486 34.3928 32.1015L33.4285 31.8367L32.4642 31.572C32.4036 31.7927 32.356 32.0157 32.3195 32.239L33.3064 32.4002ZM33.4285 31.8367L34.0669 31.067C33.7347 30.7914 33.4562 30.4811 33.2394 30.1478L32.4012 30.6932L31.563 31.2385C31.8968 31.7516 32.3133 32.2109 32.7901 32.6064L33.4285 31.8367ZM32.4012 30.6932L32.5622 29.7062C32.402 29.6801 32.2483 29.6471 32.1015 29.6068L31.8367 30.5711L31.5719 31.5354C31.7936 31.5963 32.017 31.6437 32.2402 31.6801L32.4012 30.6932Z" fill="white" mask="url(#path-1-inside-1_95_41)"/>
<path d="M80.0244 17.0627V45.5002H73.1689V17.0627H80.0244ZM91.0791 28.8986V34.1721H78.0713V28.8986H91.0791ZM92.1924 17.0627V22.3557H78.0713V17.0627H92.1924ZM101.685 15.5002V45.5002H95.083V15.5002H101.685ZM104.927 35.1486V34.7385C104.927 33.189 105.148 31.7632 105.591 30.4611C106.034 29.146 106.685 28.0067 107.544 27.0432C108.403 26.0796 109.465 25.3309 110.728 24.7971C111.991 24.2502 113.449 23.9767 115.103 23.9767C116.769 23.9767 118.234 24.2502 119.497 24.7971C120.773 25.3309 121.841 26.0796 122.7 27.0432C123.56 28.0067 124.211 29.146 124.653 30.4611C125.096 31.7632 125.317 33.189 125.317 34.7385V35.1486C125.317 36.6851 125.096 38.1109 124.653 39.426C124.211 40.728 123.56 41.8674 122.7 42.8439C121.841 43.8075 120.78 44.5562 119.517 45.09C118.254 45.6239 116.795 45.8908 115.142 45.8908C113.488 45.8908 112.023 45.6239 110.747 45.09C109.471 44.5562 108.403 43.8075 107.544 42.8439C106.685 41.8674 106.034 40.728 105.591 39.426C105.148 38.1109 104.927 36.6851 104.927 35.1486ZM111.509 34.7385V35.1486C111.509 35.9429 111.567 36.6851 111.685 37.3752C111.802 38.0653 111.997 38.6708 112.271 39.1916C112.544 39.6994 112.915 40.0965 113.384 40.383C113.853 40.6695 114.438 40.8127 115.142 40.8127C115.832 40.8127 116.405 40.6695 116.86 40.383C117.329 40.0965 117.7 39.6994 117.974 39.1916C118.247 38.6708 118.442 38.0653 118.56 37.3752C118.677 36.6851 118.735 35.9429 118.735 35.1486V34.7385C118.735 33.9702 118.677 33.2476 118.56 32.5705C118.442 31.8804 118.247 31.2749 117.974 30.7541C117.7 30.2202 117.329 29.8036 116.86 29.5041C116.392 29.2046 115.806 29.0549 115.103 29.0549C114.412 29.0549 113.833 29.2046 113.364 29.5041C112.909 29.8036 112.544 30.2202 112.271 30.7541C111.997 31.2749 111.802 31.8804 111.685 32.5705C111.567 33.2476 111.509 33.9702 111.509 34.7385ZM134.888 29.6017V45.5002H128.306V24.3674H134.458L134.888 29.6017ZM141.138 24.2111L141.021 30.3244C140.76 30.2984 140.409 30.2658 139.966 30.2267C139.523 30.1877 139.152 30.1682 138.853 30.1682C138.084 30.1682 137.42 30.2593 136.86 30.4416C136.313 30.6109 135.858 30.8713 135.493 31.2228C135.142 31.5614 134.881 31.9911 134.712 32.5119C134.556 33.0327 134.484 33.6382 134.497 34.3283L133.306 33.5471C133.306 32.1278 133.442 30.8387 133.716 29.6799C134.002 28.508 134.406 27.4989 134.927 26.6525C135.448 25.7932 136.079 25.1356 136.821 24.6799C137.563 24.2111 138.397 23.9767 139.321 23.9767C139.647 23.9767 139.966 23.9963 140.278 24.0353C140.604 24.0744 140.89 24.133 141.138 24.2111ZM153.794 40.1877V31.4767C153.794 30.8778 153.709 30.3635 153.54 29.9338C153.371 29.5041 153.104 29.1721 152.739 28.9377C152.375 28.6903 151.886 28.5666 151.274 28.5666C150.78 28.5666 150.356 28.6512 150.005 28.8205C149.653 28.9898 149.386 29.2437 149.204 29.5822C149.022 29.9208 148.931 30.3504 148.931 30.8713H142.349C142.349 29.8947 142.563 28.9898 142.993 28.1564C143.436 27.3101 144.061 26.5744 144.868 25.9494C145.688 25.3244 146.665 24.8426 147.798 24.5041C148.944 24.1525 150.22 23.9767 151.626 23.9767C153.306 23.9767 154.803 24.2567 156.118 24.8166C157.446 25.3765 158.494 26.2163 159.263 27.3361C160.031 28.4429 160.415 29.8361 160.415 31.5158V40.1682C160.415 41.5484 160.493 42.5965 160.649 43.3127C160.806 44.0158 161.027 44.6343 161.313 45.1682V45.5002H154.712C154.399 44.8491 154.165 44.0549 154.009 43.1174C153.866 42.1668 153.794 41.1903 153.794 40.1877ZM154.595 32.59L154.634 36.1057H151.724C151.112 36.1057 150.591 36.1903 150.161 36.3596C149.744 36.5288 149.406 36.7632 149.146 37.0627C148.898 37.3491 148.716 37.6747 148.599 38.0392C148.494 38.4038 148.442 38.7879 148.442 39.1916C148.442 39.5822 148.534 39.9338 148.716 40.2463C148.911 40.5458 149.172 40.7801 149.497 40.9494C149.823 41.1187 150.187 41.2033 150.591 41.2033C151.32 41.2033 151.938 41.0666 152.446 40.7932C152.967 40.5067 153.364 40.1616 153.638 39.758C153.911 39.3543 154.048 38.9767 154.048 38.6252L155.493 41.3205C155.233 41.8413 154.933 42.3687 154.595 42.9025C154.269 43.4364 153.859 43.9312 153.364 44.3869C152.882 44.8296 152.29 45.1942 151.587 45.4807C150.884 45.7541 150.031 45.8908 149.028 45.8908C147.726 45.8908 146.528 45.6239 145.435 45.09C144.354 44.5562 143.488 43.814 142.837 42.8635C142.186 41.8999 141.86 40.7932 141.86 39.5432C141.86 38.4494 142.056 37.4728 142.446 36.6135C142.85 35.7541 143.455 35.0249 144.263 34.426C145.07 33.827 146.099 33.3713 147.349 33.0588C148.599 32.7463 150.07 32.59 151.763 32.59H154.595Z" fill="#FF8888"/>
</svg>
